<?xml version="1.0" standalone="no"?><!DOCTYPE svg PUBLIC "-//W3C//DTD SVG 1.1//EN" "http://www.w3.org/Graphics/SVG/1.1/DTD/svg11.dtd"><svg t="1661903424655" class="icon" viewBox="0 0 1024 1024" version="1.1" xmlns="http://www.w3.org/2000/svg" p-id="1617" xmlns:xlink="http://www.w3.org/1999/xlink" width="200" height="200"><path d="M330.92 410.39c-43.12 45.17 117.2-220.59 117.2-220.59a66.42 66.42 0 0 1 99.7 0.1L855 707.92s-23.95 30-21.93 25.4c15.8-35.73-42.62-67.09-42.62-67.09L401.42 414.89s-39-37.5-70.5-4.5z" fill="#2CBF9C" p-id="1618"></path><path d="M497.92 191.33a41.8 41.8 0 0 1 30.71 13.15L827.34 679.8a24.49 24.49 0 0 0 2.29 3.07 42.42 42.42 0 0 1-31.85 70.42h-0.09l-601.91-2a42.42 42.42 0 0 1-31.71-70.48 24.38 24.38 0 0 0 2.26-3l300.92-473.37a41.84 41.84 0 0 1 30.67-13.11m0-24a66.11 66.11 0 0 0-49.8 22.47l-302 475.09c-37.79 42.82-7.48 110.22 49.64 110.36l601.89 2h0.17c57.09 0 87.6-67.33 49.88-110.26L547.82 189.9a66.11 66.11 0 0 0-49.9-22.57zM902.68 600.58h-0.12l-54.94-0.2a12 12 0 0 1 0-24l54.93 0.2h0.06c11.13 0 19.58-7.64 23-15.21 1.88-4.15 4.08-12.2-2.34-19.5a12.15 12.15 0 0 1-1.14-1.53l-148-235.48a20.6 20.6 0 0 0-15.1-6.48 20.6 20.6 0 0 0-15.03 6.46l-26.51 41.7a12 12 0 1 1-20.25-12.88l27.07-42.58a10.91 10.91 0 0 1 1.13-1.5 44.91 44.91 0 0 1 33.67-15.2 44.94 44.94 0 0 1 33.69 15.27 12.23 12.23 0 0 1 1.15 1.53l148.13 235.64c10.44 12.46 12.5 29 5.48 44.47a49.58 49.58 0 0 1-44.88 29.29z" fill="" p-id="1619"></path></svg>